<mxfile host="app.diagrams.net" modified="2023-08-29T09:23:41.257Z" agent="Mozilla/5.0 (Windows NT 10.0; Win64; x64) AppleWebKit/537.36 (KHTML, like Gecko) Chrome/116.0.0.0 Safari/537.36" etag="QH8kCuVOcZyYL84urQgi" version="21.6.5" type="device">
  <diagram id="C5RBs43oDa-KdzZeNtuy" name="Page-1">
    <mxGraphModel dx="1173" dy="701" grid="1" gridSize="10" guides="1" tooltips="1" connect="1" arrows="1" fold="1" page="1" pageScale="1" pageWidth="827" pageHeight="1169" math="0" shadow="0">
      <root>
        <mxCell id="WIyWlLk6GJQsqaUBKTNV-0" />
        <mxCell id="WIyWlLk6GJQsqaUBKTNV-1" parent="WIyWlLk6GJQsqaUBKTNV-0" />
        <mxCell id="zrQo-3hjCtqSjBl3zYxL-2" value="" style="edgeStyle=orthogonalEdgeStyle;rounded=0;orthogonalLoop=1;jettySize=auto;html=1;entryX=0.025;entryY=0.625;entryDx=0;entryDy=0;entryPerimeter=0;" edge="1" parent="WIyWlLk6GJQsqaUBKTNV-1" source="zrQo-3hjCtqSjBl3zYxL-0" target="zrQo-3hjCtqSjBl3zYxL-16">
          <mxGeometry relative="1" as="geometry">
            <mxPoint x="240" y="100" as="targetPoint" />
          </mxGeometry>
        </mxCell>
        <mxCell id="zrQo-3hjCtqSjBl3zYxL-0" value="Init" style="ellipse;whiteSpace=wrap;html=1;" vertex="1" parent="WIyWlLk6GJQsqaUBKTNV-1">
          <mxGeometry x="20" y="60" width="120" height="80" as="geometry" />
        </mxCell>
        <mxCell id="zrQo-3hjCtqSjBl3zYxL-42" value="" style="edgeStyle=orthogonalEdgeStyle;orthogonalLoop=1;jettySize=auto;html=1;curved=1;" edge="1" parent="WIyWlLk6GJQsqaUBKTNV-1" source="zrQo-3hjCtqSjBl3zYxL-5" target="zrQo-3hjCtqSjBl3zYxL-37">
          <mxGeometry relative="1" as="geometry" />
        </mxCell>
        <mxCell id="zrQo-3hjCtqSjBl3zYxL-5" value="Компьютер загадал;&lt;br&gt;Мы пытаемся угадать" style="whiteSpace=wrap;html=1;" vertex="1" parent="WIyWlLk6GJQsqaUBKTNV-1">
          <mxGeometry x="230" y="230" width="120" height="60" as="geometry" />
        </mxCell>
        <mxCell id="zrQo-3hjCtqSjBl3zYxL-10" value="" style="endArrow=classic;html=1;rounded=0;" edge="1" parent="WIyWlLk6GJQsqaUBKTNV-1" source="zrQo-3hjCtqSjBl3zYxL-16" target="zrQo-3hjCtqSjBl3zYxL-18">
          <mxGeometry relative="1" as="geometry">
            <mxPoint x="320" y="100" as="sourcePoint" />
            <mxPoint x="460.74626865671644" y="97.7611940298508" as="targetPoint" />
          </mxGeometry>
        </mxCell>
        <mxCell id="zrQo-3hjCtqSjBl3zYxL-11" value="число" style="edgeLabel;resizable=0;html=1;align=center;verticalAlign=middle;" connectable="0" vertex="1" parent="zrQo-3hjCtqSjBl3zYxL-10">
          <mxGeometry relative="1" as="geometry" />
        </mxCell>
        <mxCell id="zrQo-3hjCtqSjBl3zYxL-12" value="" style="endArrow=classic;html=1;rounded=0;" edge="1" parent="WIyWlLk6GJQsqaUBKTNV-1" source="zrQo-3hjCtqSjBl3zYxL-16" target="zrQo-3hjCtqSjBl3zYxL-5">
          <mxGeometry relative="1" as="geometry">
            <mxPoint x="280" y="140" as="sourcePoint" />
            <mxPoint x="460" as="targetPoint" />
            <Array as="points">
              <mxPoint x="280" y="190" />
            </Array>
          </mxGeometry>
        </mxCell>
        <mxCell id="zrQo-3hjCtqSjBl3zYxL-13" value="не число" style="edgeLabel;resizable=0;html=1;align=center;verticalAlign=middle;" connectable="0" vertex="1" parent="zrQo-3hjCtqSjBl3zYxL-12">
          <mxGeometry relative="1" as="geometry" />
        </mxCell>
        <mxCell id="zrQo-3hjCtqSjBl3zYxL-16" value="Кто загадывает?&lt;br style=&quot;border-color: var(--border-color);&quot;&gt;обновляется количество попыток" style="shape=manualInput;whiteSpace=wrap;html=1;" vertex="1" parent="WIyWlLk6GJQsqaUBKTNV-1">
          <mxGeometry x="210" y="50" width="150" height="80" as="geometry" />
        </mxCell>
        <mxCell id="zrQo-3hjCtqSjBl3zYxL-24" value="" style="edgeStyle=orthogonalEdgeStyle;rounded=0;orthogonalLoop=1;jettySize=auto;html=1;" edge="1" parent="WIyWlLk6GJQsqaUBKTNV-1" source="zrQo-3hjCtqSjBl3zYxL-18" target="zrQo-3hjCtqSjBl3zYxL-23">
          <mxGeometry relative="1" as="geometry" />
        </mxCell>
        <mxCell id="zrQo-3hjCtqSjBl3zYxL-18" value="Остались попытки?" style="rhombus;whiteSpace=wrap;html=1;" vertex="1" parent="WIyWlLk6GJQsqaUBKTNV-1">
          <mxGeometry x="470" y="50" width="80" height="80" as="geometry" />
        </mxCell>
        <mxCell id="zrQo-3hjCtqSjBl3zYxL-31" value="" style="edgeStyle=orthogonalEdgeStyle;orthogonalLoop=1;jettySize=auto;html=1;curved=1;strokeWidth=2;fillColor=#e1d5e7;strokeColor=#9673a6;" edge="1" parent="WIyWlLk6GJQsqaUBKTNV-1" source="zrQo-3hjCtqSjBl3zYxL-19" target="zrQo-3hjCtqSjBl3zYxL-30">
          <mxGeometry relative="1" as="geometry" />
        </mxCell>
        <mxCell id="zrQo-3hjCtqSjBl3zYxL-19" value="&lt;b&gt;Не угадал&lt;/b&gt;" style="rounded=0;whiteSpace=wrap;html=1;" vertex="1" parent="WIyWlLk6GJQsqaUBKTNV-1">
          <mxGeometry x="414" y="360" width="120" height="60" as="geometry" />
        </mxCell>
        <mxCell id="zrQo-3hjCtqSjBl3zYxL-21" value="" style="endArrow=classic;html=1;rounded=0;" edge="1" parent="WIyWlLk6GJQsqaUBKTNV-1" source="zrQo-3hjCtqSjBl3zYxL-18" target="zrQo-3hjCtqSjBl3zYxL-19">
          <mxGeometry relative="1" as="geometry">
            <mxPoint x="360" y="200" as="sourcePoint" />
            <mxPoint x="460" y="200" as="targetPoint" />
          </mxGeometry>
        </mxCell>
        <mxCell id="zrQo-3hjCtqSjBl3zYxL-22" value="Не" style="edgeLabel;resizable=0;html=1;align=center;verticalAlign=middle;" connectable="0" vertex="1" parent="zrQo-3hjCtqSjBl3zYxL-21">
          <mxGeometry relative="1" as="geometry" />
        </mxCell>
        <mxCell id="zrQo-3hjCtqSjBl3zYxL-26" value="" style="edgeStyle=orthogonalEdgeStyle;orthogonalLoop=1;jettySize=auto;html=1;curved=1;" edge="1" parent="WIyWlLk6GJQsqaUBKTNV-1" source="zrQo-3hjCtqSjBl3zYxL-23" target="zrQo-3hjCtqSjBl3zYxL-25">
          <mxGeometry relative="1" as="geometry" />
        </mxCell>
        <mxCell id="zrQo-3hjCtqSjBl3zYxL-23" value="Компьютер пытается угадать;&lt;br&gt;попытки -=1" style="whiteSpace=wrap;html=1;" vertex="1" parent="WIyWlLk6GJQsqaUBKTNV-1">
          <mxGeometry x="700" y="50" width="120" height="60" as="geometry" />
        </mxCell>
        <mxCell id="zrQo-3hjCtqSjBl3zYxL-25" value="Угадал?" style="rhombus;whiteSpace=wrap;html=1;" vertex="1" parent="WIyWlLk6GJQsqaUBKTNV-1">
          <mxGeometry x="670" y="200" width="80" height="80" as="geometry" />
        </mxCell>
        <mxCell id="zrQo-3hjCtqSjBl3zYxL-27" value="" style="endArrow=classic;html=1;rounded=0;exitX=0;exitY=0;exitDx=0;exitDy=0;" edge="1" parent="WIyWlLk6GJQsqaUBKTNV-1" source="zrQo-3hjCtqSjBl3zYxL-25" target="zrQo-3hjCtqSjBl3zYxL-18">
          <mxGeometry relative="1" as="geometry">
            <mxPoint x="360" y="200" as="sourcePoint" />
            <mxPoint x="460" y="200" as="targetPoint" />
          </mxGeometry>
        </mxCell>
        <mxCell id="zrQo-3hjCtqSjBl3zYxL-28" value="Не" style="edgeLabel;resizable=0;html=1;align=center;verticalAlign=middle;" connectable="0" vertex="1" parent="zrQo-3hjCtqSjBl3zYxL-27">
          <mxGeometry relative="1" as="geometry" />
        </mxCell>
        <mxCell id="zrQo-3hjCtqSjBl3zYxL-56" style="edgeStyle=orthogonalEdgeStyle;rounded=0;orthogonalLoop=1;jettySize=auto;html=1;" edge="1" parent="WIyWlLk6GJQsqaUBKTNV-1" source="zrQo-3hjCtqSjBl3zYxL-30" target="zrQo-3hjCtqSjBl3zYxL-55">
          <mxGeometry relative="1" as="geometry" />
        </mxCell>
        <mxCell id="zrQo-3hjCtqSjBl3zYxL-30" value="Вывод" style="shape=parallelogram;perimeter=parallelogramPerimeter;whiteSpace=wrap;html=1;fixedSize=1;" vertex="1" parent="WIyWlLk6GJQsqaUBKTNV-1">
          <mxGeometry x="300" y="562" width="160" height="80" as="geometry" />
        </mxCell>
        <mxCell id="zrQo-3hjCtqSjBl3zYxL-35" value="" style="endArrow=classic;html=1;curved=1;fillColor=#e1d5e7;strokeColor=#9673a6;strokeWidth=3;" edge="1" parent="WIyWlLk6GJQsqaUBKTNV-1" source="zrQo-3hjCtqSjBl3zYxL-25" target="zrQo-3hjCtqSjBl3zYxL-30">
          <mxGeometry relative="1" as="geometry">
            <mxPoint x="671.49" y="270" as="sourcePoint" />
            <mxPoint x="429.99603760615605" y="589.1701769232686" as="targetPoint" />
            <Array as="points">
              <mxPoint x="711.49" y="510" />
            </Array>
          </mxGeometry>
        </mxCell>
        <mxCell id="zrQo-3hjCtqSjBl3zYxL-36" value="Ага; &lt;b&gt;УГАДАЛ&lt;/b&gt;" style="edgeLabel;resizable=0;html=1;align=center;verticalAlign=middle;rotation=-50;" connectable="0" vertex="1" parent="zrQo-3hjCtqSjBl3zYxL-35">
          <mxGeometry relative="1" as="geometry">
            <mxPoint x="-30" y="-34" as="offset" />
          </mxGeometry>
        </mxCell>
        <mxCell id="zrQo-3hjCtqSjBl3zYxL-37" value="Остались попытки?" style="rhombus;whiteSpace=wrap;html=1;" vertex="1" parent="WIyWlLk6GJQsqaUBKTNV-1">
          <mxGeometry x="240" y="320" width="80" height="80" as="geometry" />
        </mxCell>
        <mxCell id="zrQo-3hjCtqSjBl3zYxL-51" value="" style="edgeStyle=orthogonalEdgeStyle;orthogonalLoop=1;jettySize=auto;html=1;entryX=0;entryY=0;entryDx=0;entryDy=0;strokeWidth=2;fillColor=#d5e8d4;strokeColor=#82b366;curved=1;" edge="1" parent="WIyWlLk6GJQsqaUBKTNV-1" source="zrQo-3hjCtqSjBl3zYxL-38" target="zrQo-3hjCtqSjBl3zYxL-30">
          <mxGeometry relative="1" as="geometry" />
        </mxCell>
        <mxCell id="zrQo-3hjCtqSjBl3zYxL-38" value="&lt;b&gt;Не угадал&lt;/b&gt;" style="rounded=0;whiteSpace=wrap;html=1;" vertex="1" parent="WIyWlLk6GJQsqaUBKTNV-1">
          <mxGeometry x="200" y="440" width="120" height="60" as="geometry" />
        </mxCell>
        <mxCell id="zrQo-3hjCtqSjBl3zYxL-39" value="Угадал?" style="rhombus;whiteSpace=wrap;html=1;" vertex="1" parent="WIyWlLk6GJQsqaUBKTNV-1">
          <mxGeometry x="40" y="320" width="80" height="80" as="geometry" />
        </mxCell>
        <mxCell id="zrQo-3hjCtqSjBl3zYxL-43" value="" style="endArrow=classic;html=1;rounded=0;exitX=0.5;exitY=1;exitDx=0;exitDy=0;" edge="1" parent="WIyWlLk6GJQsqaUBKTNV-1" source="zrQo-3hjCtqSjBl3zYxL-37" target="zrQo-3hjCtqSjBl3zYxL-38">
          <mxGeometry relative="1" as="geometry">
            <mxPoint x="270" y="280" as="sourcePoint" />
            <mxPoint x="370" y="280" as="targetPoint" />
          </mxGeometry>
        </mxCell>
        <mxCell id="zrQo-3hjCtqSjBl3zYxL-44" value="Не" style="edgeLabel;resizable=0;html=1;align=center;verticalAlign=middle;" connectable="0" vertex="1" parent="zrQo-3hjCtqSjBl3zYxL-43">
          <mxGeometry relative="1" as="geometry" />
        </mxCell>
        <mxCell id="zrQo-3hjCtqSjBl3zYxL-45" value="" style="endArrow=classic;html=1;rounded=0;exitX=0.088;exitY=0.563;exitDx=0;exitDy=0;exitPerimeter=0;" edge="1" parent="WIyWlLk6GJQsqaUBKTNV-1" source="zrQo-3hjCtqSjBl3zYxL-37" target="zrQo-3hjCtqSjBl3zYxL-39">
          <mxGeometry relative="1" as="geometry">
            <mxPoint x="270" y="280" as="sourcePoint" />
            <mxPoint x="370" y="280" as="targetPoint" />
          </mxGeometry>
        </mxCell>
        <mxCell id="zrQo-3hjCtqSjBl3zYxL-46" value="Ага" style="edgeLabel;resizable=0;html=1;align=center;verticalAlign=middle;" connectable="0" vertex="1" parent="zrQo-3hjCtqSjBl3zYxL-45">
          <mxGeometry relative="1" as="geometry" />
        </mxCell>
        <mxCell id="zrQo-3hjCtqSjBl3zYxL-47" value="" style="endArrow=classic;html=1;rounded=0;exitX=0.5;exitY=0;exitDx=0;exitDy=0;" edge="1" parent="WIyWlLk6GJQsqaUBKTNV-1" source="zrQo-3hjCtqSjBl3zYxL-39" target="zrQo-3hjCtqSjBl3zYxL-5">
          <mxGeometry relative="1" as="geometry">
            <mxPoint x="270" y="280" as="sourcePoint" />
            <mxPoint x="370" y="280" as="targetPoint" />
          </mxGeometry>
        </mxCell>
        <mxCell id="zrQo-3hjCtqSjBl3zYxL-48" value="Не" style="edgeLabel;resizable=0;html=1;align=center;verticalAlign=middle;" connectable="0" vertex="1" parent="zrQo-3hjCtqSjBl3zYxL-47">
          <mxGeometry relative="1" as="geometry" />
        </mxCell>
        <mxCell id="zrQo-3hjCtqSjBl3zYxL-49" value="" style="endArrow=classic;html=1;strokeWidth=2;curved=1;fillColor=#d5e8d4;strokeColor=#82b366;" edge="1" parent="WIyWlLk6GJQsqaUBKTNV-1" source="zrQo-3hjCtqSjBl3zYxL-39" target="zrQo-3hjCtqSjBl3zYxL-30">
          <mxGeometry relative="1" as="geometry">
            <mxPoint x="270" y="440" as="sourcePoint" />
            <mxPoint x="370" y="440" as="targetPoint" />
            <Array as="points">
              <mxPoint x="100" y="540" />
            </Array>
          </mxGeometry>
        </mxCell>
        <mxCell id="zrQo-3hjCtqSjBl3zYxL-50" value="Ага; &lt;b&gt;УГАДАЛ&lt;/b&gt;" style="edgeLabel;resizable=0;html=1;align=center;verticalAlign=middle;rotation=30;" connectable="0" vertex="1" parent="zrQo-3hjCtqSjBl3zYxL-49">
          <mxGeometry relative="1" as="geometry">
            <mxPoint x="3" y="-23" as="offset" />
          </mxGeometry>
        </mxCell>
        <mxCell id="zrQo-3hjCtqSjBl3zYxL-55" value="Sys.exit(0)" style="ellipse;whiteSpace=wrap;html=1;" vertex="1" parent="WIyWlLk6GJQsqaUBKTNV-1">
          <mxGeometry x="325" y="700" width="110" height="80" as="geometry" />
        </mxCell>
      </root>
    </mxGraphModel>
  </diagram>
</mxfile>
